<?xml version="1.0" encoding="UTF-8"?>
<svg id="_图层_1" data-name="图层_1" xmlns="http://www.w3.org/2000/svg" viewBox="0 0 99.23 38.23">
  <defs>
    <style>
      .cls-1 {
        fill: #ff6400;
      }

      .cls-2 {
        fill: #2d2d2d;
      }
    </style>
  </defs>
  <g>
    <path class="cls-2" d="M62.21,5.92h-2.79v1.77h-8.16v2.79h3.5l.66,2.08h-1.89c-.84,0-1.52.68-1.52,1.52v16.31h2.79v-15.05h4.63v1.23h-3.42v2.57h3.42v1.25h-3.38v6.82h7.29c1.24,0,2.26-1.01,2.26-2.26v-4.57h-3.38v-1.25h3.42v-2.57h-3.42v-1.23h4.63v11.74c0,.32-.26.57-.57.57h-3.16l.6,2.79h2.56c1.85,0,3.36-1.51,3.36-3.36v-13c0-.84-.68-1.52-1.52-1.52h-1.89l.66-2.08h3.5v-2.79h-8.16v-1.77ZM63.02,24.47c0,.1-.08.18-.18.18h-4.24v-1.69h4.42v1.51ZM63.29,12.56h-4.94l-.66-2.08h6.27l-.66,2.08Z"/>
    <rect class="cls-2" x="46.18" y="6.91" width="2.88" height="5.8" transform="translate(12.13 43.03) rotate(-54.75)"/>
    <rect class="cls-2" x="46.16" y="12.55" width="2.88" height="5.8" transform="translate(7.51 45.4) rotate(-54.75)"/>
    <rect class="cls-2" x="42.23" y="23.68" width="10.66" height="2.88" transform="translate(5.43 58.55) rotate(-66.28)"/>
    <path class="cls-2" d="M99.11,10.47v-2.79h-8.16v-1.77h-2.79v1.77h-8.16v2.79h3.5l.66,2.08h-1.89c-.84,0-1.52.68-1.52,1.52v16.31h2.79v-15.05h4.63v1.23h-3.42v2.57h3.42v1.25h-3.38v6.82h7.29c1.24,0,2.26-1.01,2.26-2.26v-4.57h-3.38v-1.25h3.42v-2.57h-3.42v-1.23h4.63v11.74c0,.32-.26.57-.57.57h-3.16l.6,2.79h2.56c1.85,0,3.36-1.51,3.36-3.36v-13c0-.84-.68-1.52-1.52-1.52h-1.89l.66-2.08h3.5ZM91.77,24.47c0,.1-.08.18-.18.18h-4.24v-1.69h4.42v1.51ZM92.03,12.56h-4.95l-.66-2.08h6.27l-.66,2.08Z"/>
    <rect class="cls-2" x="74.93" y="6.91" width="2.88" height="5.8" transform="translate(24.28 66.51) rotate(-54.75)"/>
    <rect class="cls-2" x="74.9" y="12.55" width="2.88" height="5.8" transform="translate(19.67 68.87) rotate(-54.75)"/>
    <rect class="cls-2" x="70.97" y="23.68" width="10.66" height="2.88" transform="translate(22.61 84.86) rotate(-66.28)"/>
  </g>
  <path class="cls-1" d="M29.63,10.92v5.06c0,6.22-5.1,11.26-11.35,11.15-6.12-.1-10.96-5.22-10.96-11.34v-4c0-.49.39-.88.88-.88h21.43v-6.65H1.83c-.95,0-1.72.77-1.72,1.72v9.37c0,10.12,8.1,18.52,18.22,18.59,10.2.08,18.5-8.17,18.5-18.36v-4.67h-7.2Z"/>
</svg>